<svg width="307" height="104" viewBox="0 0 307 104" fill="none" xmlns="http://www.w3.org/2000/svg">
<path fill-rule="evenodd" clip-rule="evenodd" d="M-7.8647e-07 41.1386V1.24907e-07H16.0195C23.234 1.24907e-07 31.0165 2.26971 31.0165 10.7244C31.0165 14.5829 28.4602 18.0442 26.3583 19.4061C29.5395 20.9381 32.4935 23.3213 32.4935 28.9956C32.4935 37.8475 25.1654 41.1386 16.7012 41.1386H-7.8647e-07ZM8.12337 23.0943V34.7834H17.0988C21.8706 34.7834 24.1997 32.7974 24.1997 28.9956C24.1997 25.1371 21.8138 23.0943 16.758 23.0943H8.12337ZM8.12337 6.3552V16.9661H16.5308C20.3936 16.9661 22.6659 15.1503 22.6659 11.5188C22.6659 8.28446 20.3368 6.3552 16.5308 6.3552H8.12337ZM56.6364 29.4495V27.1798C47.8313 28.0877 44.3661 29.1091 44.3661 32.5136C44.3661 34.7266 46.0703 36.5424 49.6491 36.5424C54.5913 36.5424 56.6364 33.9322 56.6364 29.4495ZM57.318 37.3368C55.1026 40.5144 51.9214 41.8762 47.32 41.8762C41.4689 41.8762 36.2995 38.4716 36.2995 32.9108C36.2995 25.7045 44.3661 23.5483 56.4091 22.1864V21.6758C56.4091 16.9661 53.8528 15.3206 50.6716 15.3206C47.6609 15.3206 45.1614 16.8526 44.991 20.2572H37.6629C38.2878 14.2425 43.1731 9.81651 51.0693 9.81651C58.2837 9.81651 64.2485 12.9941 64.2485 23.2646C64.2485 24.1724 64.1348 28.3147 64.1348 31.0383C64.1348 35.8615 64.4189 38.5851 65.0437 41.1386H57.8293C57.6021 40.1739 57.4885 38.8688 57.318 37.3368ZM78.8478 1.24907e-07V41.1386H71.0085V1.24907e-07H78.8478ZM104.752 29.4495V27.1798C95.9466 28.0877 92.4814 29.1091 92.4814 32.5136C92.4814 34.7266 94.1856 36.5424 97.7644 36.5424C102.707 36.5424 104.752 33.9322 104.752 29.4495ZM105.433 37.3368C103.218 40.5144 100.037 41.8762 95.4354 41.8762C89.5843 41.8762 84.4149 38.4716 84.4149 32.9108C84.4149 25.7045 92.4814 23.5483 104.524 22.1864V21.6758C104.524 16.9661 101.968 15.3206 98.787 15.3206C95.7762 15.3206 93.2767 16.8526 93.1063 20.2572H85.7782C86.4031 14.2425 91.2885 9.81651 99.1846 9.81651C106.399 9.81651 112.364 12.9941 112.364 23.2646C112.364 24.1724 112.25 28.3147 112.25 31.0383C112.25 35.8615 112.534 38.5851 113.159 41.1386H105.945C105.717 40.1739 105.604 38.8688 105.433 37.3368ZM126.736 10.6109V14.6397C128.497 11.5188 131.792 9.93 135.598 9.93C142.926 9.93 146.164 14.3559 146.164 21.9027V41.1386H138.324V23.605C138.324 19.6898 137.472 16.2285 133.041 16.2285C127.872 16.2285 126.736 20.4274 126.736 25.2506V41.1386H118.897V10.6109H126.736ZM166.103 9.93C172.522 9.93 178.885 13.5048 179.964 21.0516H172.465C171.84 18.101 169.114 16.0015 166.103 16.0015C162.013 16.0015 158.775 19.4628 158.775 25.818C158.775 32.2299 161.842 35.8047 166.16 35.8047C168.887 35.8047 171.67 34.3862 172.749 30.7546H180.248C178.43 39.0958 172.124 41.8762 165.762 41.8762C156.616 41.8762 150.765 35.1806 150.765 25.9315C150.765 16.6257 156.957 9.93 166.103 9.93ZM213.537 28.031H190.984C191.439 33.2513 194.961 35.8047 198.71 35.8047C201.153 35.8047 203.539 34.9536 205.129 32.2867H213.196C211.548 36.8261 207.117 41.8762 198.767 41.8762C188.939 41.8762 183.202 34.5564 183.202 25.7612C183.202 16.6824 189.507 9.93 198.54 9.93C207.97 9.93 213.821 17.2498 213.537 28.031ZM198.483 15.661C195.529 15.661 191.723 17.4768 191.098 22.6404H205.584C205.413 17.4768 201.778 15.661 198.483 15.661Z" transform="translate(82.4536 31.7547)" fill="#2E363B"/>
<path d="M29.0796 1.07978L33.1605 3.42339L9.48279 17.0213C8.64712 17.5012 8.13232 18.3881 8.13232 19.348V27.8621L0 23.1918V17.7799C0 14.9004 1.5444 12.2396 4.05141 10.7998L20.9768 1.07978C23.4839 -0.359928 26.5726 -0.359928 29.0796 1.07978ZM26.3787 46.1307L33.7914 41.8737V51.2144L29.0796 53.9201C26.5726 55.3599 23.4838 55.3599 20.9768 53.9201L4.05141 44.2001C1.5444 42.7604 0 40.0996 0 37.22V32.5328L23.6777 46.1307C24.5134 46.6106 25.5431 46.6106 26.3787 46.1307ZM41.2933 8.09393L46.0049 10.7998C48.5119 12.2395 50.0563 14.9004 50.0563 17.7799V37.22C50.0563 40.0996 48.512 42.7604 46.005 44.2001L41.9241 46.5438V19.3479C41.9241 18.3881 41.4093 17.5012 40.5736 17.0213L33.1609 12.7643L41.2933 8.09393Z" transform="translate(10 25)" fill="#2E363B"/>
</svg>
