<svg width="384" height="104" viewBox="0 0 384 104" fill="none" xmlns="http://www.w3.org/2000/svg">
<path d="M-5.42333e-09 13.5372C-5.42333e-09 21.0354 5.86875 26.9979 13.1623 26.9979C16.4089 26.9979 19.5439 25.836 22.0233 23.3613C22.2777 23.098 22.3128 22.6115 22.0585 22.3481L19.2151 19.2363C18.9959 18.9729 18.5223 18.9729 18.268 19.198C16.9549 20.3621 15.0958 20.9993 13.3815 20.9993C9.26014 20.9993 6.19755 17.5497 6.19755 13.3864C6.19755 9.18693 9.22498 5.66298 13.3443 5.66298C15.1567 5.66359 16.9066 6.34332 18.2659 7.57471C18.3253 7.63721 18.3962 7.68687 18.4745 7.72078C18.5528 7.75469 18.6369 7.77216 18.7219 7.77216C18.8069 7.77216 18.891 7.75469 18.9693 7.72078C19.0476 7.68687 19.1185 7.63721 19.1779 7.57471L22.0233 4.53718C22.0939 4.4691 22.1495 4.38628 22.1864 4.29428C22.2232 4.20228 22.2405 4.10324 22.237 4.00383C22.2334 3.90442 22.2092 3.80693 22.1659 3.71793C22.1227 3.62893 22.0614 3.55048 21.9861 3.48786C19.5067 1.16192 16.808 1.36096e-05 13.1623 1.36096e-05C11.4318 -0.00251089 9.71789 0.346055 8.11889 1.0257C6.51989 1.70535 5.06732 2.7027 3.84454 3.96049C2.62177 5.21829 1.65288 6.71177 0.993479 8.3552C0.334082 9.99863 -0.00283525 11.7597 0.00206795 13.5372H-5.42333e-09ZM36.8069 25.9103C36.8069 26.2863 37.0985 26.624 37.4996 26.624H41.8402C42.0223 26.6176 42.1952 26.5403 42.3239 26.4078C42.4525 26.2753 42.5273 26.0974 42.533 25.9103V16.3495H45.0475L49.8968 26.2863C49.9713 26.435 50.1905 26.624 50.482 26.624H55.3313C55.9517 26.624 56.206 26.0229 55.9517 25.5365L50.9556 16.0118C54.1278 14.6991 56.3529 11.925 56.3529 8.47535C56.3529 4.01252 52.7774 0.375987 48.4038 0.375987H37.4996C37.4087 0.375987 37.3186 0.394393 37.2345 0.430153C37.1505 0.465914 37.0741 0.518329 37.0098 0.584406C36.9455 0.650483 36.8944 0.728928 36.8596 0.815262C36.8248 0.901596 36.8069 0.994128 36.8069 1.08758V25.9103V25.9103ZM42.533 11.5872V5.73733H47.9302C49.4233 5.73733 50.7012 7.01181 50.7012 8.58793C50.7012 10.1598 49.4233 11.5872 47.9302 11.5872H42.533ZM76.3496 25.9103C76.3496 26.2863 76.6412 26.624 77.0424 26.624H81.3809C81.563 26.6176 81.7359 26.5403 81.8645 26.4078C81.9932 26.2753 82.0679 26.0974 82.0736 25.9103V13.9493L90.2419 1.46142C90.5335 0.974996 90.2419 0.375987 89.6587 0.375987H84.9191C84.5903 0.375987 84.4434 0.562912 84.3359 0.711602L79.2675 8.401L74.199 0.709478C74.0894 0.560788 73.9074 0.373863 73.6158 0.373863H68.8741C68.2909 0.373863 67.9994 0.972871 68.2909 1.4593L76.3496 13.9854V25.9082V25.9103ZM103.568 25.9103C103.568 26.2863 103.859 26.624 104.26 26.624H108.564C108.746 26.6176 108.919 26.5403 109.047 26.4078C109.176 26.2753 109.251 26.0974 109.256 25.9103V17.1015H113.086C117.532 17.1015 121.217 13.3141 121.217 8.6644C121.217 4.12723 117.534 0.378111 113.049 0.378111H104.26C104.077 0.378111 103.9 0.453082 103.77 0.58653C103.641 0.719979 103.568 0.900974 103.568 1.0897V25.9124V25.9103ZM109.256 11.6233V5.88814H112.72C114.288 5.88814 115.601 7.08616 115.601 8.66227C115.601 10.3488 114.288 11.6233 112.72 11.6233H109.256ZM138.735 25.9103C138.735 26.2863 139.063 26.624 139.427 26.624H143.805C143.987 26.6176 144.16 26.5403 144.289 26.4078C144.417 26.2753 144.492 26.0974 144.498 25.9103V5.88602H149.713C149.897 5.88602 150.073 5.81105 150.203 5.6776C150.333 5.54415 150.406 5.36315 150.406 5.17443V1.08758C150.406 0.89885 150.333 0.717855 150.203 0.584406C150.073 0.450958 149.897 0.375987 149.713 0.375987H133.521C133.338 0.376549 133.162 0.451768 133.033 0.585156C132.903 0.718544 132.831 0.899218 132.831 1.08758V5.17443C132.831 5.5504 133.12 5.88602 133.523 5.88602H138.737V25.9103H138.735ZM162.598 13.5372C162.587 15.3069 162.917 17.0614 163.571 18.6989C164.225 20.3364 165.188 21.8243 166.406 23.0764C167.623 24.3286 169.071 25.3199 170.664 25.9931C172.258 26.6662 173.965 27.0078 175.688 26.9979C177.413 27.0086 179.123 26.6679 180.719 25.9955C182.315 25.3231 183.765 24.3324 184.986 23.0806C186.206 21.8288 187.173 20.3409 187.831 18.7028C188.488 17.0647 188.823 15.309 188.815 13.5372C188.824 11.7613 188.491 10.0012 187.836 8.35809C187.18 6.71498 186.214 5.22134 184.994 3.96315C183.774 2.70496 182.323 1.70706 180.726 1.0269C179.129 0.346741 177.417 -0.00225129 175.688 1.36096e-05C168.397 1.36096e-05 162.598 6.03683 162.598 13.5372ZM168.434 13.5372C168.434 9.41209 171.714 5.9986 175.688 5.9986C179.7 5.9986 182.982 9.41209 182.982 13.5372C182.982 17.624 179.7 20.9993 175.688 20.9993C171.714 20.9993 168.434 17.6219 168.434 13.5372V13.5372Z" transform="translate(7 37)" fill="black"/>
<path d="M0.000207668 13.5372C0.000207668 21.0354 5.83173 26.9618 13.0901 26.9618C18.3778 26.9618 22.1331 24.5232 22.1331 24.5232C22.2989 24.3676 22.4021 24.154 22.4226 23.9242L22.3875 13.8346C22.3875 13.4607 22.098 13.1251 21.732 13.1251H14.4033C14.3114 13.1218 14.2199 13.138 14.1344 13.1726C14.049 13.2072 13.9713 13.2595 13.9063 13.3263C13.8414 13.393 13.7905 13.4727 13.7568 13.5606C13.7231 13.6484 13.7073 13.7424 13.7105 13.8367V17.5476C13.7105 17.9214 14 18.2209 14.4033 18.2209H16.6986V20.396C15.6649 20.8093 14.5632 21.0134 13.4541 20.9972C9.47954 20.9972 6.23498 17.6198 6.23498 13.5351C6.23498 9.40997 9.44439 5.96036 13.4189 5.96036C15.2056 5.96036 16.8103 6.44891 18.1958 7.75951C18.3385 7.87203 18.515 7.92979 18.6947 7.92281C18.8744 7.91582 19.0461 7.84454 19.1801 7.72127L22.0608 4.57329C22.3503 4.27166 22.3151 3.82347 21.9863 3.56008C19.5069 1.34672 16.1548 0.0339973 13.0901 0.0339973C11.3659 0.0314483 9.65823 0.379328 8.06546 1.0576C6.47268 1.73587 5.02628 2.73113 3.80957 3.98605C2.59286 5.24098 1.62989 6.73077 0.976108 8.36961C0.322324 10.0085 -0.00934131 11.764 0.000207668 13.5351V13.5372ZM36.7099 13.5372C36.6984 15.3069 37.029 17.0614 37.6825 18.6989C38.3361 20.3364 39.2997 21.8243 40.5173 23.0764C41.7349 24.3286 43.1824 25.3199 44.7758 25.9931C46.3692 26.6662 48.0769 27.0078 49.7998 26.9979C51.5247 27.0086 53.2345 26.6679 54.8304 25.9955C56.4262 25.3231 57.8765 24.3324 59.0972 23.0806C60.318 21.8288 61.285 20.3409 61.9424 18.7028C62.5997 17.0647 62.9344 15.309 62.927 13.5372C62.936 11.7613 62.6029 10.0012 61.9471 8.35809C61.2912 6.71498 60.3254 5.22134 59.1053 3.96315C57.8853 2.70495 56.435 1.70706 54.8379 1.0269C53.2409 0.346738 51.5287 -0.00225396 49.7998 1.09482e-05C42.5083 1.09482e-05 36.7099 6.03683 36.7099 13.5372V13.5372ZM42.5435 13.5372C42.5435 9.41209 45.8253 5.99859 49.8019 5.99859C53.8116 5.99859 57.0934 9.41209 57.0934 13.5372C57.0934 17.624 53.8116 20.9993 49.7998 20.9993C45.8253 20.9993 42.5435 17.6219 42.5435 13.5372V13.5372ZM74.406 13.5372C74.3945 15.3069 74.7251 17.0614 75.3786 18.6989C76.0322 20.3364 76.9957 21.8243 78.2134 23.0764C79.431 24.3286 80.8785 25.3199 82.4719 25.9931C84.0653 26.6662 85.773 27.0078 87.4959 26.9979C89.2208 27.0086 90.9306 26.6679 92.5265 25.9955C94.1223 25.3231 95.5726 24.3324 96.7933 23.0806C98.0141 21.8288 98.9811 20.3409 99.6385 18.7028C100.296 17.0647 100.63 15.309 100.623 13.5372C100.632 11.7613 100.299 10.0012 99.6432 8.35809C98.9873 6.71498 98.0215 5.22134 96.8014 3.96315C95.5813 2.70495 94.1311 1.70706 92.534 1.0269C90.937 0.346738 89.2248 -0.00225396 87.4959 1.09482e-05C80.2024 1.09482e-05 74.406 6.03683 74.406 13.5372V13.5372ZM80.2396 13.5372C80.2396 9.41209 83.5214 5.99859 87.4959 5.99859C91.5077 5.99859 94.7894 9.41209 94.7894 13.5372C94.7894 17.624 91.5077 20.9993 87.4959 20.9993C83.5214 20.9993 80.2396 17.6219 80.2396 13.5372V13.5372ZM115.444 25.9103C115.444 26.2863 115.733 26.624 116.099 26.624H124.996C132.035 26.624 137.796 20.7359 137.796 13.4607C137.796 6.26199 132.035 0.375984 124.996 0.375984H116.099C115.735 0.375984 115.444 0.711599 115.444 1.08757V25.9103ZM121.131 21.0736V5.88601H124.632C128.753 5.88601 131.743 9.22517 131.743 13.4607C131.743 17.7366 128.753 21.0736 124.632 21.0736H121.131V21.0736ZM151.376 24.1112C152.216 24.9736 154.84 27 159.579 27C164.942 27 168.186 23.0979 168.186 19.2363C168.186 14.1383 163.664 11.8485 160.82 10.6866C157.94 9.48644 156.846 8.43498 156.846 7.05004C156.846 6.03683 157.83 5.13831 159.141 5.13831C161.368 5.13831 164.03 7.19873 164.356 7.38778C164.687 7.64905 165.341 7.31131 165.597 6.89923L167.458 4.01039C167.603 3.74912 167.675 3.07577 167.237 2.81238C166.143 1.98821 163.225 1.09482e-05 159.435 1.09482e-05C153.818 1.09482e-05 151.012 3.74912 151.012 7.46213C151.012 11.9611 154.949 14.4739 158.084 15.7484C160.566 16.7616 161.842 17.9618 161.842 19.5358C161.842 20.8485 160.783 21.7874 159.325 21.7874C156.918 21.7874 154.294 19.7992 154.147 19.7227C153.893 19.5358 153.2 19.4614 152.906 19.9478L151.194 23.0618C150.902 23.5865 151.012 23.7352 151.376 24.1112Z" transform="translate(208.814 37)" fill="#10D3F4"/>
</svg>
