<svg width="204" height="104" viewBox="0 0 204 104" fill="none" xmlns="http://www.w3.org/2000/svg">
<g clip-path="url(#clip0)">
<path d="M35.9701 0C50.5271 11.2737 67.2204 10.5784 71.9899 10.5784C70.9466 74.6946 62.9974 66.1524 35.9701 84.1308C8.94284 66.1524 1.04333 74.6946 0 10.5784C4.71984 10.5784 21.4132 11.2737 35.9701 0Z" transform="translate(8.43604 8.43463)" fill="white"/>
<path d="M39.406 3.43461L41.5103 0.719508C40.2716 -0.239836 38.5405 -0.239836 37.3017 0.719508L39.406 3.43461ZM75.4258 14.013L78.8614 14.0689C78.8763 13.1484 78.5211 12.2604 77.8752 11.6042C77.2293 10.948 76.347 10.5784 75.4258 10.5784V14.013ZM39.406 87.5654L37.5025 90.4245C38.6556 91.1918 40.1565 91.1918 41.3095 90.4245L39.406 87.5654ZM3.43589 14.013V10.5784C2.51495 10.5784 1.63256 10.948 0.986673 11.6042C0.340785 12.2604 -0.0145242 13.1484 0.000455073 14.0689L3.43589 14.013ZM37.3017 6.14972C52.8947 18.2258 70.7368 17.4476 75.4258 17.4476V10.5784C70.5758 10.5784 55.0312 11.1908 41.5103 0.719508L37.3017 6.14972ZM71.9903 13.9572C71.7315 29.9108 71.0563 41.1639 69.763 49.5016C68.4867 57.7506 66.6619 62.6946 64.3134 66.1672C61.9336 69.7747 58.9486 71.9157 54.5254 74.5574C50.0636 77.2288 44.4276 80.1063 37.5025 84.7062L41.3095 90.4245C47.898 86.0352 53.3912 83.2386 58.0539 80.4515C62.7548 77.6351 66.8899 74.533 70.0065 70.0146C73.1539 65.3606 75.2013 59.2947 76.5536 50.5513C77.8891 41.8961 78.5986 30.1733 78.8614 14.0689L71.9903 13.9572ZM41.3095 84.7062C34.3847 80.1063 28.7526 77.2293 24.2959 74.5584C19.8777 71.9172 16.8991 69.7772 14.5254 66.1701C12.1823 62.6981 10.3632 57.7536 9.09149 49.5034C7.80254 41.1652 7.13013 29.9113 6.87133 13.9572L0.000455073 14.0689C0.263325 30.1728 0.969607 41.8947 2.29985 50.5494C3.64737 59.2917 5.68797 65.3576 8.82857 70.0116C11.9385 74.5306 16.0676 77.6336 20.7646 80.451C25.4231 83.2381 30.9137 86.0352 37.5025 90.4245L41.3095 84.7062ZM3.43589 17.4476C8.07625 17.4476 25.9177 18.2255 41.5103 6.14972L37.3017 0.719508C23.7804 11.1911 8.23521 10.5784 3.43589 10.5784V17.4476Z" transform="translate(5 5)" fill="#3375BB"/>
<path d="M18.4136 4.08178H11.4891V22.9075H6.83135V4.08178H0V0.3104H18.4136V4.08178ZM29.4524 14.6354H25.7418V22.9075H21.084V0.3104H29.4834C32.1539 0.3104 34.2137 0.905324 35.6628 2.09522C37.1118 3.28507 37.8364 4.9664 37.8364 7.1392C37.8364 8.68086 37.5 9.969 36.8272 11.0036C36.1647 12.028 35.1555 12.8454 33.7997 13.4559L38.6903 22.6902V22.9075H33.691L29.4524 14.6354ZM25.7418 10.864H29.499C30.6686 10.864 31.5743 10.5691 32.216 9.97938C32.8577 9.37924 33.1786 8.5567 33.1786 7.51168C33.1786 6.44599 32.8733 5.60791 32.2626 4.99744C31.6623 4.38697 30.7359 4.08178 29.4834 4.08178H25.7418V10.864ZM58.5014 0.3104V15.1941C58.5014 17.6669 57.7249 19.6224 56.1723 21.0606C54.6302 22.4988 52.5186 23.2179 49.8378 23.2179C47.1986 23.2179 45.1025 22.5195 43.55 21.1227C41.9974 19.7259 41.2054 17.8066 41.1741 15.3648V0.3104H45.8324V15.2251C45.8324 16.7047 46.1841 17.7859 46.8876 18.4688C47.6021 19.1413 48.5853 19.4776 49.8378 19.4776C52.4565 19.4776 53.7865 18.1015 53.8278 15.3492V0.3104H58.5014ZM74.0426 16.9789C74.0426 16.0994 73.7321 15.4269 73.1111 14.9613C72.49 14.4853 71.3722 13.9887 69.7575 13.4714C68.1428 12.9437 66.8645 12.4263 65.9225 11.9194C63.3554 10.5329 62.0721 8.66532 62.0721 6.31666C62.0721 5.09572 62.4134 4.00932 63.097 3.05741C63.7901 2.09522 64.7788 1.34505 66.0621 0.807039C67.3558 0.26903 68.8051 0 70.4093 0C72.024 0 73.4628 0.294905 74.7257 0.884615C75.9882 1.46404 76.9664 2.28663 77.66 3.35232C78.364 4.41801 78.7157 5.62857 78.7157 6.984H74.058C74.058 5.94935 73.7321 5.14747 73.0798 4.57842C72.4279 3.99899 71.5118 3.7093 70.3318 3.7093C69.1931 3.7093 68.3082 3.95241 67.6768 4.43872C67.0453 4.91465 66.7298 5.54583 66.7298 6.33216C66.7298 7.06679 67.0975 7.68242 67.8323 8.17906C68.5775 8.6757 69.6695 9.14125 71.1079 9.57581C73.7579 10.3725 75.6881 11.3606 76.8993 12.5402C78.1101 13.7197 78.7157 15.1889 78.7157 16.9478C78.7157 18.9033 77.9755 20.4398 76.4954 21.5572C75.0154 22.6644 73.0231 23.2179 70.5181 23.2179C68.7792 23.2179 67.1959 22.9023 65.767 22.2712C64.3391 21.6297 63.2471 20.7554 62.4914 19.6483C61.7462 18.5412 61.3736 17.2582 61.3736 15.7993H66.0467C66.0467 18.2929 67.5372 19.5397 70.5181 19.5397C71.6255 19.5397 72.49 19.3172 73.1111 18.8723C73.7321 18.417 74.0426 17.7859 74.0426 16.9789ZM98.8993 4.08178H91.9745V22.9075H87.3173V4.08178H80.4859V0.3104H98.8993V4.08178Z" transform="translate(95.1008 26.7482)" fill="#3375BB"/>
<path d="M4.75479 12.8889L5.3006 15.6292L5.96773 13.0101L9.80064 1.01547e-07H11.147L14.9315 13.0101L15.5864 15.6534L16.1686 12.8889L19.3587 1.01547e-07H20.887L16.3627 17.654H14.9315L10.9287 3.84364L10.4799 2.09766L10.0432 3.84364L5.94344 17.654H4.51219L-2.07339e-08 1.01547e-07H1.52832L4.75479 12.8889ZM32.7618 12.707H24.7442L22.9248 17.654H21.3601L28.0435 1.01547e-07H29.4626L36.146 17.654H34.5934L32.7618 12.707ZM25.2052 11.4339H32.2888L28.747 1.81874L25.2052 11.4339ZM40.2579 16.393H48.9789V17.654H38.7538V1.01547e-07H40.2579V16.393ZM53.3579 16.393H62.0787V17.654H51.8535V1.01547e-07H53.3579V16.393ZM74.7055 9.19076H66.4453V16.393H75.9431V17.654H64.9538V1.01547e-07H75.8825V1.27314H66.4453V7.92975H74.7055V9.19076ZM91.3233 1.27314H85.2705V17.654H83.7785V1.27314H77.7381V1.01547e-07H91.3233V1.27314Z" transform="translate(98.6045 57.3303)" fill="#2E91DB"/>
</g>
<defs>
<clipPath id="clip0">
<rect width="204" height="104" fill="white"/>
</clipPath>
</defs>
</svg>
