<svg width="20" height="20" viewBox="0 0 20 20" fill="none" xmlns="http://www.w3.org/2000/svg">
<path d="M15.2656 11.0332L11.5156 14.7832C11.375 14.9238 11.1875 14.9941 11 14.9941C10.7891 14.9941 10.6016 14.9238 10.4609 14.7832C10.1562 14.502 10.1562 14.0098 10.4609 13.7285L12.9219 11.2441H5.75C5.32812 11.2441 5 10.916 5 10.4941C5 10.0957 5.32812 9.74414 5.75 9.74414H12.9219L10.4609 7.2832C10.1562 7.00195 10.1562 6.50977 10.4609 6.22852C10.7422 5.92383 11.2344 5.92383 11.5156 6.22852L15.2656 9.97852C15.5703 10.2598 15.5703 10.752 15.2656 11.0332Z" fill="white"/>
</svg>
